<svg id="Capa_1" data-name="Capa 1" xmlns="http://www.w3.org/2000/svg" viewBox="0 0 504.99 147.28"><defs><style>.cls-1{fill:#1a7fab;}</style></defs><title>laBodeguitaLogo</title><path class="cls-1" d="M148.41,294a2.34,2.34,0,0,1-.85-2.34,1.36,1.36,0,0,1,.56-.85,1.65,1.65,0,0,1,1.11-.26l.31-.15s0-.05.05-.05c1.13-2.24,2.39-4.86,3.79-7.88s2.76-6.21,4.11-9.58,2.64-6.78,3.84-10.24,2.22-6.77,3.06-9.89a61.88,61.88,0,0,0,1.73-8.49,16.19,16.19,0,0,0-.16-6.08l-.05-.36c0-.24.19-.33.57-.26a5.53,5.53,0,0,1,1.41.52,17.91,17.91,0,0,1,1.88,1.05c.69.43,1.33.87,1.93,1.31a14.29,14.29,0,0,1,1.52,1.29,2.6,2.6,0,0,1,.72,1,20.54,20.54,0,0,1-.59,5.1c-.46,2.16-1.13,4.62-2,7.36s-1.91,5.67-3.11,8.75-2.51,6.18-3.91,9.27-2.9,6.06-4.46,8.91a82.81,82.81,0,0,1-4.71,7.67c1.65.07,3.4.23,5.25.49l5.92.85c2.68.44,5.44.85,8.27,1.21a66.25,66.25,0,0,0,8.36.54,39.62,39.62,0,0,0,7.06-.62,21.76,21.76,0,0,0,6.38-2.21c.35,0,.62.26.83.87a7.47,7.47,0,0,1,.33,2.11,12,12,0,0,1-.15,2.27,2.19,2.19,0,0,1-.54,1.34l.15,0a10.32,10.32,0,0,1-4.56,2.62,21.59,21.59,0,0,1-6,.77,49,49,0,0,1-9.44-1q-5-1-10-2.17c-3-.68-5.9-1.29-8.63-1.82a37.49,37.49,0,0,0-7.18-.8l-1,0-.95.08Z" transform="translate(-147.5 -226.36)"/><path class="cls-1" d="M192.39,268a.62.62,0,0,1-.28.52,1.81,1.81,0,0,1-.72.28,3.32,3.32,0,0,1-.95,0,3.55,3.55,0,0,1-.93-.2,18,18,0,0,1,1.7,1.1,10.16,10.16,0,0,1,1.52,1.37,6.69,6.69,0,0,1,1,1.52,2.9,2.9,0,0,1,.33,1.52c-.07.24-.14.5-.2.79l-.21.91c-.14.65-.28,1.35-.44,2.11s-.29,1.49-.41,2.21-.21,1.4-.26,2a7.14,7.14,0,0,0,0,1.63c0,.07,0,.15-.1.25h.36a6.23,6.23,0,0,0,2.42-1.7,14.94,14.94,0,0,0,1.95-2.7,24.3,24.3,0,0,0,1.57-3.24c.47-1.15.9-2.26,1.32-3.32a6.4,6.4,0,0,0,.56-1.39c.11-.17.35-.22.75-.13a4.05,4.05,0,0,1,1.21.49,4.77,4.77,0,0,1,1.08.85c.31.32.41.61.31.85l-.82,2.06v.05c-.8,2-1.67,4-2.63,6a22.24,22.24,0,0,1-3.6,5.32c-.25.28-.54.58-.88.91a7,7,0,0,1-1.24.92,7.69,7.69,0,0,1-1.59.72,5.37,5.37,0,0,1-2,.23,6.06,6.06,0,0,1-4-1.72,8,8,0,0,1-2.06-3.84,18.82,18.82,0,0,1-3.43,3.71,6.47,6.47,0,0,1-4,1.6,8.17,8.17,0,0,1-3.47-1.11,9.11,9.11,0,0,1-2.45-2.14,9.9,9.9,0,0,1-1.52-2.65,13.34,13.34,0,0,1-.74-2.65,13.16,13.16,0,0,1-.16-1.85,16.34,16.34,0,0,1,.36-4.17,28.78,28.78,0,0,1,1.34-4.53,25.7,25.7,0,0,1,2.21-4.38,22.07,22.07,0,0,1,3-3.76,13.62,13.62,0,0,1,3.63-2.62,9.37,9.37,0,0,1,4.25-1,8.73,8.73,0,0,1,1.34.1,14,14,0,0,1,1.44.31,5.73,5.73,0,0,1,2.29,1.31,7.85,7.85,0,0,1,1.57,2.11,13.09,13.09,0,0,1,1,2.58,18.82,18.82,0,0,1,.51,2.7m-6,0a1.54,1.54,0,0,1,1.16-.1,7.28,7.28,0,0,1,1.62.56.71.71,0,0,1-.36-.56,1,1,0,0,0-.08-.36c-.05-.14-.09-.28-.13-.42a7.48,7.48,0,0,0-.31-1.08,4.86,4.86,0,0,0-.51-1.05,2.88,2.88,0,0,0-.75-.8,2.09,2.09,0,0,0-1.1-.36,4.91,4.91,0,0,0-3.48,1.36,12.62,12.62,0,0,0-2.7,3.58,26.82,26.82,0,0,0-2.78,9.12,6.52,6.52,0,0,0-.08,1.41,11.38,11.38,0,0,0,.18,1.67,3.84,3.84,0,0,0,.77,2c.41.52,1.12.64,2.11.36a3.81,3.81,0,0,0,1.55-1.18,22,22,0,0,0,1.75-2.29c.58-.88,1.14-1.81,1.67-2.78s1-1.87,1.32-2.66c.17-1.06.31-2.08.43-3.06a11.49,11.49,0,0,0,.08-2.5Z" transform="translate(-147.5 -226.36)"/><path class="cls-1" d="M271.18,299.79a25.25,25.25,0,0,0-2-6.4,25.54,25.54,0,0,0-3.25-5.31,16.4,16.4,0,0,0-3.79-3.55,6.27,6.27,0,0,0-3.75-1.18,8.7,8.7,0,0,1-1.77,0h-.2a4.11,4.11,0,0,1-3-.54,4.33,4.33,0,0,1-1.77-2.22q-3.45,11.82-6,23.43t-4.43,22.64v-.1c-.07.52-.4.74-1,.64a5.32,5.32,0,0,1-2.07-1,27.85,27.85,0,0,1-2.56-2.06,22.82,22.82,0,0,1-2.51-2.61,21.28,21.28,0,0,1-1.87-2.61,4.25,4.25,0,0,1-.74-2.12q.58-7.87,2.16-17.37t3.8-19.39q2.2-9.89,4.82-19.58t5.27-17.87a60.78,60.78,0,0,0-8.22,8.47,88.08,88.08,0,0,0-7.14,10.23,94.73,94.73,0,0,0-9.71,22.15,62.35,62.35,0,0,0-2.07,9.89,22.25,22.25,0,0,0,.25,7.82q.3,1.18-.54,1.38a4.11,4.11,0,0,1-2.27-.34,16.37,16.37,0,0,1-3.15-1.68,22.55,22.55,0,0,1-3.3-2.65,19.59,19.59,0,0,1-2.76-3.35,9.46,9.46,0,0,1-1.48-3.69,11.69,11.69,0,0,1,0-3.64,92.75,92.75,0,0,1,3.6-14.52,84.42,84.42,0,0,1,6.06-13.88,79.31,79.31,0,0,1,8.42-12.4,60.71,60.71,0,0,1,10.64-10.09,52.47,52.47,0,0,1,12.81-6.93,49,49,0,0,1,14.82-3h.1a26.63,26.63,0,0,1,9.75,1.73,24.3,24.3,0,0,1,7.69,4.67,24.58,24.58,0,0,1,5.27,6.79,26.51,26.51,0,0,1,2.71,8.07c.13.92.21,1.71.25,2.36s0,1.32,0,2a31.49,31.49,0,0,1-1.62,9.9,30,30,0,0,1-4,7.77,27.94,27.94,0,0,1-5.67,5.86,36.51,36.51,0,0,1-6.74,4.13,50.4,50.4,0,0,1,5,4,42.49,42.49,0,0,1,4.53,4.77,36.07,36.07,0,0,1,3.55,5.27,27.42,27.42,0,0,1,2.26,5.36,34.79,34.79,0,0,1-1,17.87,33,33,0,0,1-9.26,13.93,44.44,44.44,0,0,1-15.91,8.95,64.52,64.52,0,0,1-21,3.06A44.55,44.55,0,0,1,226.51,341a41,41,0,0,1-10.64-4.78,32.72,32.72,0,0,1-8-7.09,17.86,17.86,0,0,1-3.94-8.67,15.89,15.89,0,0,1,.59-6.89,23.58,23.58,0,0,1,3.45-7.1,21.47,21.47,0,0,1,3.59.5c1.68.33,3.37.73,5.08,1.23a43.91,43.91,0,0,1,4.68,1.62,5,5,0,0,1,2.51,1.68,18.65,18.65,0,0,0-4.88,5.61,8.5,8.5,0,0,0-1,4.93,9.76,9.76,0,0,0,2.11,4.53,15.67,15.67,0,0,0,4.39,3.74,25,25,0,0,0,6,2.52,25.62,25.62,0,0,0,6.89.93,42.93,42.93,0,0,0,14.24-2.36,33.12,33.12,0,0,0,11.57-6.79,26.06,26.06,0,0,0,8.08-24.8m-7-65a23,23,0,0,0-6,1,26.82,26.82,0,0,0-5.77,2.56,30.16,30.16,0,0,1,3.35,2.22,20.42,20.42,0,0,1,3.16,2.9,15.73,15.73,0,0,1,2.21,3.3,5.83,5.83,0,0,1,.64,3.3q-5,12.91-9.06,26.31a3.4,3.4,0,0,0,.34-.2l.35-.2a28.82,28.82,0,0,0,5.42-2.41,32,32,0,0,0,6.6-4.88,35.32,35.32,0,0,0,5.86-7.29,24.4,24.4,0,0,0,3.45-13.15,26.59,26.59,0,0,0-.35-3.5,17.31,17.31,0,0,0-1-3.84,11,11,0,0,0-2-3.25,8.71,8.71,0,0,0-3-2.17,9.56,9.56,0,0,0-4.23-.69" transform="translate(-147.5 -226.36)"/><path class="cls-1" d="M317.48,272.47a12.34,12.34,0,0,1,7,3.84,21.37,21.37,0,0,1,4.28,6.89,18.62,18.62,0,0,1,4.24,7.79c.13.52.24,1.05.34,1.57s.22,1.15.35,1.88a34.35,34.35,0,0,1,.29,8.61,40.44,40.44,0,0,1-1.67,8.48,43.91,43.91,0,0,1-3.3,7.78,28.88,28.88,0,0,1-4.68,6.4,21.84,21.84,0,0,1-5.81,4.29,14.83,14.83,0,0,1-6.7,1.57A19.8,19.8,0,0,1,300,327.29q-5.52-4.19-8.48-12.76a28.13,28.13,0,0,1-1.18-4.92,29.92,29.92,0,0,1-.1-8.72,38.54,38.54,0,0,1,6.41-16.7,30.86,30.86,0,0,1,5.81-6.45,24.24,24.24,0,0,1,7-4.14,18.81,18.81,0,0,1,8-1.13m1.58,26a2.65,2.65,0,0,1-1.48-1.38,14.44,14.44,0,0,1-1-2.41,17.49,17.49,0,0,1-.69-2.81c-.17-1-.28-1.83-.35-2.56a5.14,5.14,0,0,1,.45-2.51,9.78,9.78,0,0,1,1.28-2.17,10.52,10.52,0,0,1,1.57-1.62,12.57,12.57,0,0,1,1.33-1,3.77,3.77,0,0,0-1.48-.19,10.06,10.06,0,0,0-4.43,1.72,18.28,18.28,0,0,0-4.23,3.79,30.15,30.15,0,0,0-3.11,5.47,35.07,35.07,0,0,0-2.07,6.26,40.11,40.11,0,0,0-.93,6.45,24.61,24.61,0,0,0,.29,6,13.41,13.41,0,0,0,2.32,6.25,6.49,6.49,0,0,0,5.17,2.71,8.34,8.34,0,0,0,6.5-2.76,24.37,24.37,0,0,0,4.93-7.38,37.79,37.79,0,0,0,2.76-9.56,29.46,29.46,0,0,0,.09-9.26V291a2.47,2.47,0,0,0-1.57.64,9.3,9.3,0,0,0-1.48,1.52,7.56,7.56,0,0,0-1.08,1.88,4.65,4.65,0,0,0-.4,1.77Z" transform="translate(-147.5 -226.36)"/><path class="cls-1" d="M379.94,308.82a39.06,39.06,0,0,0-.94,5.71,22.72,22.72,0,0,0,.05,4.93c.13.65.1,1-.1,1.08h1a12.1,12.1,0,0,0,4.63-3.25,28.9,28.9,0,0,0,3.74-5.17,49.6,49.6,0,0,0,3-6.21q1.32-3.3,2.51-6.35a11.43,11.43,0,0,0,1.08-2.66c.2-.33.68-.41,1.43-.25a8.15,8.15,0,0,1,2.32.94,9.28,9.28,0,0,1,2.07,1.62c.59.63.78,1.17.59,1.63l-1.58,3.94v.1q-2.26,5.81-5,11.47a42.78,42.78,0,0,1-6.9,10.2c-.46.53-1,1.1-1.67,1.72a13.82,13.82,0,0,1-2.37,1.78,15.45,15.45,0,0,1-3,1.38,10.46,10.46,0,0,1-3.75.44,11.66,11.66,0,0,1-7.68-3.3,15.38,15.38,0,0,1-3.94-7.34,36.6,36.6,0,0,1-6.55,7.09,12.37,12.37,0,0,1-7.64,3.06,15.71,15.71,0,0,1-6.65-2.12,17.73,17.73,0,0,1-4.68-4.09,19.33,19.33,0,0,1-2.9-5.07,26.41,26.41,0,0,1-1.43-5.08,26.76,26.76,0,0,1-.3-3.54,31.61,31.61,0,0,1,.69-8,53.73,53.73,0,0,1,2.57-8.67,47,47,0,0,1,4.23-8.37,41.55,41.55,0,0,1,5.72-7.2,26.17,26.17,0,0,1,6.94-5,18.1,18.1,0,0,1,8.13-1.87,17.06,17.06,0,0,1,2.56.19,27.3,27.3,0,0,1,2.76.6,12.45,12.45,0,0,1,5,3.25l.49-1.28,1.88-5.72q1.28-3.65,2.31-7.58t1.82-7.74c.53-2.53,1-5,1.33-7.29s.61-4.44.74-6.35c.79-.53,2-.51,3.6.05a18.42,18.42,0,0,1,4.78,2.56,17,17,0,0,1,4,4.09,6.47,6.47,0,0,1,1.33,4.53c-.14.79-.43,2.1-.89,3.94s-1,3.91-1.68,6.21-1.37,4.71-2.16,7.24-1.55,4.91-2.27,7.14l-1.67,5.42v-.1q-2,6.21-3.94,12.91a134.74,134.74,0,0,0-3.35,14.38Zm-24.73,10.24a7.44,7.44,0,0,0,3-2.21,35.89,35.89,0,0,0,3.3-4.29q1.62-2.46,3.15-5.27t2.51-5.07l.59-3.45q.69-3.25,1.48-6.55c.53-2.2,1.12-4.39,1.78-6.55a6.46,6.46,0,0,0-1.58-2.56,4.49,4.49,0,0,0-2.76-1.28,9.3,9.3,0,0,0-6.65,2.6,24.25,24.25,0,0,0-5.17,6.85,51.77,51.77,0,0,0-5.32,17.44,13.53,13.53,0,0,0-.15,2.71,20.08,20.08,0,0,0,.35,3.2,7.37,7.37,0,0,0,1.47,3.74q1.18,1.49,4,.69" transform="translate(-147.5 -226.36)"/><path class="cls-1" d="M430.47,290.69a37.1,37.1,0,0,1-9.11,14.78A38.12,38.12,0,0,1,407,314.24a16.54,16.54,0,0,0,2,5,5.71,5.71,0,0,0,3.79,2.86l-.2-.1a8.15,8.15,0,0,0,4.49-.3,16.36,16.36,0,0,0,5-2.8,29.38,29.38,0,0,0,5-5.27,47.09,47.09,0,0,0,4.63-7.69c.72-1.57,1.39-3.2,2-4.87s1.19-3.27,1.72-4.78a2.38,2.38,0,0,1,2-1.38,3.84,3.84,0,0,1,2.46.64,4.93,4.93,0,0,1,1.77,2.07,3.75,3.75,0,0,1,.05,3l-1.28,3.55q-1.77,4.43-4.43,9.8a54,54,0,0,1-6.8,10.39,21,21,0,0,1-5.12,4.29,24.18,24.18,0,0,1-5.12,2.26,20.89,20.89,0,0,1-4.49.89c-1.34.1-2.41.15-3.2.15q-7.68,0-12.56-4.43a21.23,21.23,0,0,1-6.35-12.12,33.18,33.18,0,0,1,.05-13.1,57.6,57.6,0,0,1,5.07-13.89,29.14,29.14,0,0,1,3.65-5.27,34.12,34.12,0,0,1,5.46-5.18,29.6,29.6,0,0,1,6.75-3.84,18.93,18.93,0,0,1,7.59-1.38,10.58,10.58,0,0,1,7,2.71,11.49,11.49,0,0,1,3.6,7,15.29,15.29,0,0,1,0,4,15.67,15.67,0,0,1-1.24,4.28Zm-7.68-8.08a12.32,12.32,0,0,0-5.91,3.16,26.73,26.73,0,0,0-4.68,5.81,35.68,35.68,0,0,0-3.3,7.14,49.2,49.2,0,0,0-1.87,7.14,33.22,33.22,0,0,0,10.44-7.73,30.06,30.06,0,0,0,6.5-11.67v.09a5.48,5.48,0,0,0,.35-1.57,6.67,6.67,0,0,0-.05-1.38c-.2-.92-.69-1.25-1.48-1" transform="translate(-147.5 -226.36)"/><path class="cls-1" d="M465.84,342.41l3.55,2c2.42,1.31,4.89,2.61,7.38,3.89a81.24,81.24,0,0,0,8.18,3.6h-.1c.66.2,1,.87,1,2a8.8,8.8,0,0,1-.84,3.74,10.35,10.35,0,0,1-2.66,3.6A6.42,6.42,0,0,1,478,362.8a8.92,8.92,0,0,1-4.44-1.28l-6.79-4.23c-1-.73-2-1.38-3-2s-1.94-1.14-2.86-1.67a54.51,54.51,0,0,1-4.58,7.93,30.77,30.77,0,0,1-5.76,6.26,25.54,25.54,0,0,1-7.34,4.18,28.34,28.34,0,0,1-9.41,1.63,33.63,33.63,0,0,1-6.4-.64,19.45,19.45,0,0,1-6.11-2.32,16.84,16.84,0,0,1-5-4.58,17.93,17.93,0,0,1-3.06-7.34,18.36,18.36,0,0,1,.45-9.75,19.68,19.68,0,0,1,4.87-7.83,23.23,23.23,0,0,1,8.13-5.12,28.31,28.31,0,0,1,10.2-1.83,52.09,52.09,0,0,1,9.5.74,46.88,46.88,0,0,1,7.84,2.22l2.26-8.67a1.11,1.11,0,0,1,0-.34,1.23,1.23,0,0,0,.05-.35,19.28,19.28,0,0,1-4,2.51,11.05,11.05,0,0,1-4.19,1,15.71,15.71,0,0,1-6.65-2.12,17.73,17.73,0,0,1-4.68-4.09,19.33,19.33,0,0,1-2.9-5.07,26.41,26.41,0,0,1-1.43-5.08,26.76,26.76,0,0,1-.3-3.54,31.61,31.61,0,0,1,.69-8,53.73,53.73,0,0,1,2.57-8.67,47,47,0,0,1,4.23-8.37,41.55,41.55,0,0,1,5.72-7.2,26.17,26.17,0,0,1,6.94-5,18.1,18.1,0,0,1,8.13-1.87,17.06,17.06,0,0,1,2.56.19,27.3,27.3,0,0,1,2.76.6,10.83,10.83,0,0,1,4.38,2.51,14.8,14.8,0,0,1,3,4,25,25,0,0,1,1.87,4.92,35.71,35.71,0,0,1,1,5.18,1,1,0,0,1-.44.83,3.32,3.32,0,0,1-1.18.54,6,6,0,0,1-1.63.2,6.42,6.42,0,0,1-1.67-.2,20.42,20.42,0,0,1,3.49,2,22.76,22.76,0,0,1,3.06,2.61,11.37,11.37,0,0,1,2.07,2.91,5,5,0,0,1,.54,2.91ZM437.17,365a20.42,20.42,0,0,0,7.64-6.65,51.82,51.82,0,0,0,5.56-10.1,47.43,47.43,0,0,0-5.81-1.72,31.31,31.31,0,0,0-5.81-.74,28.94,28.94,0,0,0-6.8.64,21.77,21.77,0,0,0-6.35,2.32,12.47,12.47,0,0,0-4.39,3.94,7.33,7.33,0,0,0-1,5.61,8.65,8.65,0,0,0,1.48,3.65,9.22,9.22,0,0,0,2.61,2.41,11.83,11.83,0,0,0,3.35,1.38,15.39,15.39,0,0,0,3.59.44,14,14,0,0,0,3.1-.34,19.85,19.85,0,0,0,2.81-.84m15.27-45.91a5.73,5.73,0,0,0,2.61-1.82A34,34,0,0,0,458,313.6q1.47-2.13,2.91-4.63c.95-1.68,1.78-3.27,2.51-4.78q.89-3.45,1.52-7.05a29.48,29.48,0,0,0,.45-6.94c1-.46,2.53-.33,4.63.39a1,1,0,0,1-.59-1,2,2,0,0,0-.15-.69,8,8,0,0,1-.25-.79,14.23,14.23,0,0,0-.59-2.07,10.78,10.78,0,0,0-1-2,5.52,5.52,0,0,0-1.43-1.53,4.16,4.16,0,0,0-2.12-.68,9.3,9.3,0,0,0-6.65,2.6,24.25,24.25,0,0,0-5.17,6.85,51.77,51.77,0,0,0-5.32,17.44,13.53,13.53,0,0,0-.15,2.71,20.08,20.08,0,0,0,.35,3.2,7.28,7.28,0,0,0,1.47,3.74q1.19,1.49,4,.69" transform="translate(-147.5 -226.36)"/><path class="cls-1" d="M514.7,273.16a4.38,4.38,0,0,1,3.6.19,15.85,15.85,0,0,1,4.53,2.76,19,19,0,0,1,3.74,4.24,6.84,6.84,0,0,1,1.24,4.63c-.14.53-.35,1.34-.65,2.46s-.6,2.37-.93,3.74V291c-.53,2.16-1.13,4.63-1.82,7.39s-1.32,5.48-1.88,8.17-1,5.21-1.28,7.54a23.17,23.17,0,0,0-.15,5.66c0,.53,0,.79-.09.79h1a11.65,11.65,0,0,0,4.58-3.25,30.14,30.14,0,0,0,3.7-5.22,59.56,59.56,0,0,0,3.05-6.26c.92-2.2,1.77-4.31,2.56-6.35L537,296.6a2.14,2.14,0,0,1,1.82-1.38,3.92,3.92,0,0,1,2.41.64,5.17,5.17,0,0,1,1.87,2.12,4,4,0,0,1,.1,3.15l-1.57,3.75q-2.26,5.61-5,11.42a42.92,42.92,0,0,1-6.7,10.25,18.44,18.44,0,0,1-1.77,1.73,16,16,0,0,1-2.46,1.72,16.42,16.42,0,0,1-3.06,1.33,11.77,11.77,0,0,1-3.64.54,8.9,8.9,0,0,1-7-3.64,18.41,18.41,0,0,1-3.4-8.48l-.1-.09c-.72,1.31-1.48,2.54-2.27,3.69a27,27,0,0,1-2.56,3.2,18.44,18.44,0,0,1-1.77,1.73,16.58,16.58,0,0,1-2.47,1.72,16.32,16.32,0,0,1-3.05,1.33,11.82,11.82,0,0,1-3.64.54,8.69,8.69,0,0,1-6.9-3.64,18.8,18.8,0,0,1-3.35-8.38c-.13-.72-.23-1.51-.3-2.36s-.09-1.64-.09-2.37c.13-2.95.51-6.55,1.13-10.78s1.3-8.43,2-12.56c.53-3.35,1-6.56,1.53-9.61s.8-5.6.93-7.64l.79-1.37c.79-.46,2-.4,3.5.19a15.85,15.85,0,0,1,4.53,2.76,20,20,0,0,1,3.79,4.24A6.67,6.67,0,0,1,501.5,285l-.59,2.66c-.26,1.18-.62,2.53-1.08,4v-.1c-.59,2.16-1.22,4.58-1.87,7.24s-1.25,5.3-1.78,7.93-.92,5.11-1.18,7.44a23,23,0,0,0-.1,5.56c0,.53,0,.79-.1.79h.89a11.9,11.9,0,0,0,4.58-3.2,29.51,29.51,0,0,0,3.65-5,52.28,52.28,0,0,0,2.95-6c.89-2.14,1.73-4.22,2.51-6.26h-.1c.14-.33.28-.67.45-1s.31-.71.44-1l1-5.61c.65-3.48,1.23-6.8,1.72-9.95s.8-5.78.94-7.89Z" transform="translate(-147.5 -226.36)"/><path class="cls-1" d="M543.17,273.16a4.08,4.08,0,0,1,3.5.24,17,17,0,0,1,4.34,2.76,15.24,15.24,0,0,1,3.44,4.24,6.58,6.58,0,0,1,.84,4.68c.07-.13,0,0-.1.39s-.31.92-.54,1.58l-.79,2.26c-.29.86-.57,1.64-.84,2.37q-.88,2.55-2,5.66t-2.17,6.31c-.69,2.13-1.37,4.22-2,6.25s-1.17,3.84-1.53,5.42a34,34,0,0,0-.69,3.79c-.1,1,0,1.43.44,1.43h.69a14,14,0,0,0,5.18-3.2,31.08,31.08,0,0,0,4.23-5.07,52.85,52.85,0,0,0,3.5-6.06q1.58-3.21,3.05-6.16l1.09-2.36c.19-.4.67-.48,1.42-.25a6.84,6.84,0,0,1,2.22,1.18,8.93,8.93,0,0,1,1.82,1.87c.5.69.61,1.27.35,1.73l.1-.2a119.42,119.42,0,0,1-6.85,13,75.65,75.65,0,0,1-8.52,11.63l-1.87,1.62a14.58,14.58,0,0,1-2.51,1.73,18.19,18.19,0,0,1-3.11,1.33,11.5,11.5,0,0,1-3.54.54,7.74,7.74,0,0,1-6.21-3,15.53,15.53,0,0,1-3-7.25c-.13-1.05-.21-2.13-.24-3.25a25.23,25.23,0,0,1,.15-3.44V315a85.58,85.58,0,0,1,2.06-11.42q1.59-6.51,3.35-13c.73-2.95,1.45-5.83,2.17-8.62s1.28-5.33,1.68-7.63ZM548.3,243a3.79,3.79,0,0,1,2,.54,17.34,17.34,0,0,1,2.66,1.78,32.88,32.88,0,0,1,2.85,2.56c.95,1,1.81,1.87,2.56,2.76a23.83,23.83,0,0,1,1.88,2.46,5.1,5.1,0,0,1,.83,1.72,19.91,19.91,0,0,1-.74,5c-.42,1.44-.87,2.92-1.33,4.43s-.9,3-1.33,4.63a33.27,33.27,0,0,0-.93,5.52,9.89,9.89,0,0,1-3-1.43,22.94,22.94,0,0,1-3.25-2.61,23.29,23.29,0,0,1-2.66-3.06,7.1,7.1,0,0,1-1.33-2.66,31.84,31.84,0,0,1-.1-4.33c.07-1.58.17-3.22.3-4.93s.33-3.44.39-5.22a43.24,43.24,0,0,0-.09-5.12Z" transform="translate(-147.5 -226.36)"/><path class="cls-1" d="M563.27,277.49a3.87,3.87,0,0,1-3,0,4,4,0,0,1-2.41-4.24,3.69,3.69,0,0,1,1.52-2.46,77.25,77.25,0,0,1,13-8.37q1.67-6.41,2.66-11.82c.65-3.62,1.12-7,1.38-10.15.85-.53,2.08-.51,3.69.05a16.31,16.31,0,0,1,4.68,2.61,20.36,20.36,0,0,1,3.94,4.09,6.6,6.6,0,0,1,1.48,4.48c-.13.53-.28,1.22-.44,2.07s-.41,1.84-.74,2.95a65.23,65.23,0,0,1,12.51-1.18c.65,0,1.53,0,2.61,0s1.95.08,2.61.15a8.12,8.12,0,0,1,.74,3.2,9.62,9.62,0,0,1-.45,3.25,7.71,7.71,0,0,1-1.37,2.61,2.6,2.6,0,0,1-2.07,1.09c-.73-.07-1.45-.12-2.17-.15s-1.45-.05-2.17-.05a56.25,56.25,0,0,0-6.7.39,62.07,62.07,0,0,0-6.6,1.19l-2.66,9-.39,1.28q-.59,1.88-1.58,5.12c-.65,2.17-1.36,4.58-2.11,7.24s-1.52,5.46-2.27,8.38-1.41,5.75-2,8.47-1,5.24-1.23,7.54a18.55,18.55,0,0,0,0,5.51v.79h.69a11.9,11.9,0,0,0,4.58-3.2,28.94,28.94,0,0,0,3.64-5,50.72,50.72,0,0,0,3-6c.89-2.14,1.72-4.22,2.51-6.26h-.1a11.89,11.89,0,0,1,.74-1.72,13.58,13.58,0,0,0,.74-1.63c.13-.39.56-.49,1.28-.29a9.27,9.27,0,0,1,2.27,1,8.35,8.35,0,0,1,2,1.63c.55.62.77,1.16.64,1.62L594,305.07q-2.26,5.63-5.07,11.38a46.73,46.73,0,0,1-6.55,10.1,16.54,16.54,0,0,1-1.78,1.72,15.34,15.34,0,0,1-2.46,1.73,16.32,16.32,0,0,1-3,1.33,11.82,11.82,0,0,1-3.64.54,8.64,8.64,0,0,1-7-3.64,19.23,19.23,0,0,1-3.3-8.48,18,18,0,0,1-.25-2.31c0-.82-.05-1.56-.05-2.22a82.11,82.11,0,0,1,2.27-20q2.36-9.84,5.22-19.21l.69-2c-.92.53-1.84,1.07-2.76,1.63s-1.84,1.13-2.76,1.72Z" transform="translate(-147.5 -226.36)"/><path class="cls-1" d="M630.16,289.81a1.17,1.17,0,0,1-.54,1,3.44,3.44,0,0,1-1.38.54,6.43,6.43,0,0,1-1.82.05,7.17,7.17,0,0,1-1.78-.39,31.23,31.23,0,0,1,3.25,2.11,19.13,19.13,0,0,1,2.91,2.62,12.5,12.5,0,0,1,2,2.9,5.82,5.82,0,0,1,.64,2.91c-.13.46-.26,1-.39,1.52s-.27,1.14-.4,1.73l-.84,4c-.29,1.44-.55,2.85-.79,4.23s-.39,2.68-.49,3.89a13.61,13.61,0,0,0,0,3.11c.07.13,0,.29-.19.49H631a12,12,0,0,0,4.63-3.25,29.44,29.44,0,0,0,3.75-5.17,48.21,48.21,0,0,0,3-6.21q1.33-3.3,2.51-6.35A12,12,0,0,0,646,296.9c.2-.33.67-.41,1.43-.25a8.21,8.21,0,0,1,2.31.94,9.28,9.28,0,0,1,2.07,1.62c.59.63.79,1.17.59,1.63l-1.57,3.94v.1q-2.28,5.81-5,11.47a42.74,42.74,0,0,1-6.89,10.2,24,24,0,0,1-1.68,1.72,13.73,13.73,0,0,1-2.36,1.78,15.29,15.29,0,0,1-3.06,1.38,10.4,10.4,0,0,1-3.74.44,11.69,11.69,0,0,1-7.69-3.3,15.56,15.56,0,0,1-3.94-7.34,36.6,36.6,0,0,1-6.55,7.09,12.35,12.35,0,0,1-7.63,3.06,15.67,15.67,0,0,1-6.65-2.12,17.73,17.73,0,0,1-4.68-4.09A19.09,19.09,0,0,1,588,320.1a27.15,27.15,0,0,1-1.43-5.08,28.29,28.29,0,0,1-.29-3.54,31.61,31.61,0,0,1,.69-8,53.68,53.68,0,0,1,2.56-8.67,47.7,47.7,0,0,1,4.24-8.37,41.51,41.51,0,0,1,5.71-7.2,26.21,26.21,0,0,1,7-5,18,18,0,0,1,8.12-1.87,16.87,16.87,0,0,1,2.56.19,26.17,26.17,0,0,1,2.76.6,10.93,10.93,0,0,1,4.39,2.51,14.77,14.77,0,0,1,3,4,24.4,24.4,0,0,1,1.87,4.92,37.16,37.16,0,0,1,1,5.18m-11.53,0a3,3,0,0,1,2.22-.2,14.58,14.58,0,0,1,3.1,1.08,1.37,1.37,0,0,1-.69-1.08,2,2,0,0,0-.15-.69,7.92,7.92,0,0,1-.24-.79,14.23,14.23,0,0,0-.59-2.07,10.82,10.82,0,0,0-1-2,5.38,5.38,0,0,0-1.43-1.53,4.09,4.09,0,0,0-2.11-.68,9.3,9.3,0,0,0-6.65,2.6,24.27,24.27,0,0,0-5.18,6.85,48.56,48.56,0,0,0-3.54,8.87,49.36,49.36,0,0,0-1.78,8.57,13,13,0,0,0-.14,2.71,20.08,20.08,0,0,0,.34,3.2,7.37,7.37,0,0,0,1.48,3.74c.79,1,2.13,1.22,4,.69a7.26,7.26,0,0,0,2.95-2.26,38.93,38.93,0,0,0,3.35-4.39q1.68-2.51,3.2-5.32t2.52-5.07c.32-2,.6-4,.83-5.86a22.15,22.15,0,0,0,.15-4.78Z" transform="translate(-147.5 -226.36)"/></svg>